<svg xmlns="http://www.w3.org/2000/svg" xmlns:xlink="http://www.w3.org/1999/xlink" width="1125" zoomAndPan="magnify" viewBox="0 0 1125 1124.99995" height="1124.99995" preserveAspectRatio="xMidYMid meet" version="1.0"><defs><clipPath id="id1"><path d="M 122 998 L 151 998 L 151 1042.261719 L 122 1042.261719 Z M 122 998 " clip-rule="nonzero"/></clipPath><clipPath id="id2"><path d="M 205 998 L 234 998 L 234 1042.261719 L 205 1042.261719 Z M 205 998 " clip-rule="nonzero"/></clipPath><clipPath id="id3"><path d="M 288 998 L 317 998 L 317 1042.261719 L 288 1042.261719 Z M 288 998 " clip-rule="nonzero"/></clipPath><clipPath id="id4"><path d="M 848 83.761719 L 877 83.761719 L 877 128 L 848 128 Z M 848 83.761719 " clip-rule="nonzero"/></clipPath><clipPath id="id5"><path d="M 931 83.761719 L 960 83.761719 L 960 128 L 931 128 Z M 931 83.761719 " clip-rule="nonzero"/></clipPath><clipPath id="id6"><path d="M 1013 83.761719 L 1041.992188 83.761719 L 1041.992188 128 L 1013 128 Z M 1013 83.761719 " clip-rule="nonzero"/></clipPath></defs><path fill="rgb(17.248535%, 72.158813%, 15.289307%)" d="M 525.871094 586.289062 L 850.148438 910.609375 C 863.019531 923.488281 883.882812 923.488281 896.753906 910.617188 L 976.988281 830.382812 C 989.851562 817.511719 989.859375 796.648438 976.988281 783.777344 L 756.246094 562.988281 L 885.644531 433.582031 L 976.980469 342.246094 C 989.851562 329.375 989.851562 308.511719 976.980469 295.640625 L 896.753906 215.40625 C 883.882812 202.535156 863.019531 202.535156 850.148438 215.40625 L 525.871094 539.683594 C 513 552.554688 513 573.417969 525.871094 586.289062 Z M 525.871094 586.289062 " fill-opacity="1" fill-rule="nonzero"/><path fill="rgb(13.328552%, 57.649231%, 12.159729%)" d="M 629.457031 436.203125 L 756.296875 563.042969 L 804.773438 514.558594 L 885.644531 433.582031 L 976.980469 342.246094 C 989.851562 329.375 989.851562 308.511719 976.980469 295.640625 L 896.761719 215.414062 C 883.882812 202.542969 863.011719 202.542969 850.140625 215.421875 L 677.941406 387.71875 Z M 629.457031 436.203125 " fill-opacity="1" fill-rule="nonzero"/><path fill="rgb(11.759949%, 63.919067%, 9.799194%)" d="M 629.457031 436.203125 L 756.296875 563.042969 L 787.054688 532.234375 L 660.214844 405.394531 Z M 629.457031 436.203125 " fill-opacity="1" fill-rule="nonzero"/><path fill="rgb(13.328552%, 57.649231%, 12.159729%)" d="M 187.773438 586.289062 L 512.050781 910.609375 C 524.921875 923.488281 545.792969 923.488281 558.664062 910.617188 L 638.890625 830.382812 C 651.761719 817.511719 651.761719 796.648438 638.898438 783.777344 L 418.15625 562.988281 L 547.554688 433.582031 L 638.890625 342.246094 C 651.761719 329.375 651.761719 308.511719 638.890625 295.640625 L 558.664062 215.40625 C 545.792969 202.535156 524.921875 202.535156 512.050781 215.40625 L 187.773438 539.683594 C 174.902344 552.554688 174.902344 573.417969 187.773438 586.289062 Z M 187.773438 586.289062 " fill-opacity="1" fill-rule="nonzero"/><path fill="rgb(17.248535%, 72.158813%, 15.289307%)" d="M 291.367188 436.203125 L 418.199219 563.042969 L 466.683594 514.558594 L 547.554688 433.582031 L 638.890625 342.246094 C 651.761719 329.375 651.761719 308.511719 638.890625 295.640625 L 558.664062 215.414062 C 545.792969 202.542969 524.921875 202.542969 512.050781 215.421875 L 339.84375 387.71875 Z M 291.367188 436.203125 " fill-opacity="1" fill-rule="nonzero"/><path fill="rgb(11.759949%, 63.919067%, 9.799194%)" d="M 291.367188 436.203125 L 418.199219 563.042969 L 448.964844 532.234375 L 322.125 405.394531 Z M 291.367188 436.203125 " fill-opacity="1" fill-rule="nonzero"/><path fill="rgb(30.589294%, 30.589294%, 30.589294%)" d="M 515.941406 529.753906 L 840.21875 205.484375 C 858.535156 187.164062 888.351562 187.15625 906.675781 205.484375 L 986.914062 285.710938 C 995.789062 294.589844 1000.675781 306.390625 1000.675781 318.949219 C 1000.675781 331.496094 995.789062 343.300781 986.914062 352.175781 L 776.101562 562.988281 L 986.921875 773.847656 C 1005.238281 792.171875 1005.238281 821.988281 986.914062 840.304688 L 906.683594 920.539062 C 897.808594 929.417969 886.003906 934.3125 873.457031 934.304688 C 860.898438 934.304688 849.097656 929.417969 840.21875 920.539062 L 515.941406 596.21875 C 497.621094 577.894531 497.621094 548.078125 515.941406 529.753906 Z M 860.074219 900.6875 C 863.839844 904.453125 868.921875 906.433594 874.28125 906.207031 C 879.1875 906.003906 883.789062 903.722656 887.269531 900.246094 L 967.058594 820.449219 C 974.429688 813.078125 974.429688 801.078125 967.058594 793.699219 L 753.949219 580.554688 C 744.441406 571.042969 744.269531 555.683594 753.546875 545.957031 L 756.296875 543.078125 L 966.621094 332.753906 C 970.09375 329.28125 972.375 324.679688 972.578125 319.765625 C 972.804688 314.40625 970.824219 309.332031 967.058594 305.566406 L 886.824219 225.335938 C 883.136719 221.652344 878.296875 219.808594 873.449219 219.808594 C 868.605469 219.808594 863.765625 221.652344 860.074219 225.335938 L 535.800781 549.613281 C 528.425781 556.988281 528.425781 568.988281 535.800781 576.367188 Z M 860.074219 900.6875 " fill-opacity="1" fill-rule="nonzero"/><g clip-path="url(#id1)"><path fill="rgb(30.589294%, 30.589294%, 30.589294%)" d="M 136.808594 998.421875 C 144.5625 998.421875 150.851562 1004.710938 150.851562 1012.460938 L 150.851562 1028.222656 C 150.851562 1035.972656 144.5625 1042.261719 136.808594 1042.261719 C 129.050781 1042.261719 122.769531 1035.972656 122.769531 1028.222656 L 122.769531 1012.460938 C 122.769531 1004.710938 129.050781 998.421875 136.808594 998.421875 Z M 136.808594 998.421875 " fill-opacity="1" fill-rule="nonzero"/></g><g clip-path="url(#id2)"><path fill="rgb(30.589294%, 30.589294%, 30.589294%)" d="M 219.691406 998.421875 C 227.445312 998.421875 233.734375 1004.710938 233.734375 1012.460938 L 233.734375 1028.222656 C 233.734375 1035.972656 227.445312 1042.261719 219.691406 1042.261719 C 211.933594 1042.261719 205.652344 1035.972656 205.652344 1028.222656 L 205.652344 1012.460938 C 205.652344 1004.710938 211.933594 998.421875 219.691406 998.421875 Z M 219.691406 998.421875 " fill-opacity="1" fill-rule="nonzero"/></g><g clip-path="url(#id3)"><path fill="rgb(30.589294%, 30.589294%, 30.589294%)" d="M 302.570312 998.421875 C 310.328125 998.421875 316.609375 1004.710938 316.609375 1012.460938 L 316.609375 1028.222656 C 316.609375 1035.972656 310.328125 1042.261719 302.570312 1042.261719 C 294.816406 1042.261719 288.527344 1035.972656 288.527344 1028.222656 L 288.527344 1012.460938 C 288.527344 1004.710938 294.816406 998.421875 302.570312 998.421875 Z M 302.570312 998.421875 " fill-opacity="1" fill-rule="nonzero"/></g><g clip-path="url(#id4)"><path fill="rgb(30.589294%, 30.589294%, 30.589294%)" d="M 862.195312 127.601562 C 854.433594 127.601562 848.152344 121.3125 848.152344 113.5625 L 848.152344 97.804688 C 848.152344 90.050781 854.433594 83.761719 862.195312 83.761719 C 869.945312 83.761719 876.234375 90.050781 876.234375 97.804688 L 876.234375 113.5625 C 876.234375 121.3125 869.945312 127.601562 862.195312 127.601562 Z M 862.195312 127.601562 " fill-opacity="1" fill-rule="nonzero"/></g><g clip-path="url(#id5)"><path fill="rgb(30.589294%, 30.589294%, 30.589294%)" d="M 945.070312 127.601562 C 937.316406 127.601562 931.027344 121.3125 931.027344 113.5625 L 931.027344 97.804688 C 931.027344 90.050781 937.316406 83.761719 945.070312 83.761719 C 952.828125 83.761719 959.109375 90.050781 959.109375 97.804688 L 959.109375 113.5625 C 959.109375 121.3125 952.828125 127.601562 945.070312 127.601562 Z M 945.070312 127.601562 " fill-opacity="1" fill-rule="nonzero"/></g><g clip-path="url(#id6)"><path fill="rgb(30.589294%, 30.589294%, 30.589294%)" d="M 1027.953125 83.761719 C 1035.703125 83.761719 1041.992188 90.050781 1041.992188 97.804688 L 1041.992188 113.5625 C 1041.992188 121.3125 1035.703125 127.601562 1027.953125 127.601562 C 1020.199219 127.601562 1013.910156 121.3125 1013.910156 113.5625 L 1013.910156 97.804688 C 1013.910156 90.050781 1020.199219 83.761719 1027.953125 83.761719 Z M 1027.953125 83.761719 " fill-opacity="1" fill-rule="nonzero"/></g><path fill="rgb(30.589294%, 30.589294%, 30.589294%)" d="M 178.257812 529.753906 L 502.542969 205.484375 C 520.863281 187.164062 550.675781 187.15625 569.003906 205.484375 L 649.230469 285.710938 C 658.109375 294.589844 663 306.390625 663 318.949219 C 663 331.496094 658.109375 343.300781 649.230469 352.175781 L 438.425781 562.988281 L 649.238281 773.847656 C 667.558594 792.171875 667.558594 821.988281 649.238281 840.304688 L 569.007812 920.539062 C 560.132812 929.417969 548.328125 934.3125 535.773438 934.304688 C 523.21875 934.304688 511.421875 929.417969 502.542969 920.539062 L 178.265625 596.21875 C 159.941406 577.894531 159.941406 548.078125 178.257812 529.753906 Z M 522.398438 900.6875 C 526.164062 904.453125 531.238281 906.433594 536.597656 906.207031 C 541.515625 906.003906 546.113281 903.722656 549.585938 900.246094 L 629.382812 820.449219 C 636.753906 813.078125 636.753906 801.078125 629.382812 793.699219 L 418.167969 582.449219 C 407.25 571.523438 407.449219 553.753906 418.617188 543.078125 L 628.9375 332.753906 C 632.417969 329.28125 634.691406 324.679688 634.90625 319.765625 C 635.125 314.40625 633.144531 309.332031 629.375 305.566406 L 549.148438 225.335938 C 545.460938 221.652344 540.613281 219.808594 535.773438 219.808594 C 530.933594 219.808594 526.082031 221.652344 522.398438 225.335938 L 198.121094 549.613281 C 190.75 556.988281 190.75 568.988281 198.121094 576.367188 Z M 522.398438 900.6875 " fill-opacity="1" fill-rule="nonzero"/></svg>