<svg id="Capa_1" enable-background="new 0 0 512 512" height="512" viewBox="0 0 512 512" width="512" xmlns="http://www.w3.org/2000/svg"><g><path d="m512 256c0 57.74-19.12 111-51.37 153.82-.07.1-.15.2-.23.3-.85 1.15-1.73 2.28-2.6 3.41-.95 1.2-1.9 2.39-2.86 3.58-.22.27-.43.53-.65.8-5.39 6.59-11.1 12.91-17.11 18.93l-.09.09c-1.19 1.19-2.39 2.38-3.61 3.54-.47.46-.94.92-1.42 1.36-.16.16-.33.32-.49.47-3.92 3.7-7.95 7.27-12.09 10.71-21.77 18.07-46.57 32.61-73.52 42.73-27.99 10.51-58.31 16.26-89.96 16.26s-61.96-5.75-89.94-16.26c-24.25-9.1-46.77-21.78-66.88-37.39-1.22-.94-2.44-1.9-3.64-2.87-.06-.05-.11-.09-.17-.14l-.01-.01c-.12-.09-.22-.18-.34-.27-4.54-3.68-8.95-7.51-13.23-11.48-1.91-1.77-3.78-3.57-5.63-5.41-.04-.03-.09-.08-.13-.12l-.01-.01c-.04-.04-.09-.08-.13-.12s-.08-.08-.12-.12c-.01-.01-.02-.02-.04-.04v-.01c-2.63-2.6-5.2-5.27-7.72-8-.27-.29-.54-.59-.81-.88-.33-.36-.66-.73-.98-1.09-.05-.06-.11-.12-.16-.18-4.26-4.69-8.34-9.55-12.24-14.56-1.83-2.35-3.62-4.73-5.36-7.15-30.5-42.13-48.46-93.91-48.46-149.89 0-141.38 114.62-256 256-256 81.43 0 153.98 38.02 200.87 97.28.68.86 1.35 1.72 2.02 2.59.08.11.16.22.24.32 9.58 12.47 18.04 25.84 25.21 39.98h.01c1.25 2.45 2.45 4.92 3.62 7.42 2.17 4.63 4.2 9.34 6.09 14.12.12.29.24.58.35.87.04.11.09.22.12.33 4.07 10.39 7.46 21.1 10.14 32.1.13.48.24.97.36 1.46.18.77.36 1.54.53 2.31.03.13.06.26.09.39 4.16 18.27 6.35 37.29 6.35 56.83z" fill="#96e2ea"/><g><circle cx="235.748" cy="227.418" fill="#30d0e9" r="188.271"/><g><circle cx="155.457" cy="129.432" fill="#ffcc6a" r="38.441"/><g><path d="m460.4 410.12c-.85 1.15-1.73 2.28-2.6 3.41-.95 1.2-1.9 2.39-2.86 3.58-.22.27-.43.53-.65.8-5.39 6.59-11.1 12.91-17.11 18.93-.03.03-.06.06-.09.09-1.19 1.19-2.39 2.38-3.61 3.54-.47.46-.94.92-1.42 1.36-.16.16-.33.32-.49.47-3.92 3.7-7.95 7.27-12.09 10.71-21.77 18.07-46.57 32.61-73.52 42.73h-179.9c-24.25-9.1-46.77-21.78-66.88-37.39-1.22-.94-2.44-1.9-3.64-2.87-.06-.05-.11-.09-.17-.14l-.01-.01c-.12-.09-.22-.18-.34-.27-4.54-3.68-8.95-7.51-13.23-11.48-1.91-1.77-3.78-3.57-5.63-5.41-.04-.03-.09-.08-.13-.12l-.01-.01c-.04-.04-.09-.08-.13-.12s-.08-.08-.12-.12c-.01-.01-.02-.02-.04-.04v-.01c-2.63-2.6-5.2-5.27-7.72-8-.27-.29-.54-.59-.81-.88-.33-.36-.66-.73-.98-1.09-.05-.06-.11-.12-.16-.18-4.26-4.69-8.34-9.55-12.24-14.56-1.83-2.35-3.62-4.73-5.36-7.15 12.97-5.25 43.9-13.92 78.06 4.23 0 0 25.8 21.89 93.29-10.25 0 0 25.32-17.1 99.27 15.05 0 0 24.65 9.1 63.03-10.61 0 0 43.91-14.9 78.29 5.81z" fill="#1497a5"/><path d="m454.29 417.91c-5.39 6.59-11.1 12.91-17.11 18.93-.03.03-.06.06-.09.09-1.19 1.19-2.39 2.38-3.61 3.54-.47.46-.94.92-1.42 1.36-.16.16-.33.32-.49.47-3.92 3.7-7.95 7.27-12.09 10.71-44.35 36.83-101.33 58.99-163.48 58.99-59.08 0-113.5-20.03-156.82-53.65v-32.4s35.57-22.74 76.21 1.21c0 0 23.27 21.88 84.12-10.25 0 0 22.83-17.1 89.51 15.05 0 0 22.23 9.1 56.83-10.61 0 0 23.49-8.84 48.44-3.44z" fill="#1fc9c9"/><path d="m419.48 453.01c-44.35 36.83-101.33 58.99-163.48 58.99-67.29 0-128.52-25.97-174.21-68.42 27.63-2.87 77.29 1.73 166.31 29.29 0 0 57.5.15 87.45-17.11 0 0 65.5-28.43 83.93-2.75z" fill="#ffcc6a"/></g><g><path d="m324.22 110.24-228.86 345.09c-.12-.09-.22-.18-.34-.27-4.54-3.68-8.95-7.51-13.23-11.48-1.91-1.77-3.78-3.57-5.63-5.41l225.74-348.37z" fill="#99764d"/><path d="m302.07 89.53-226.04 348.52-.01-.01c-.04-.04-.09-.08-.13-.12s-.08-.08-.12-.12c-.01-.01-.02-.02-.04-.04v-.01c-2.91-2.88-5.76-5.85-8.53-8.88-.33-.36-.66-.73-.98-1.09-.05-.06-.11-.12-.16-.18l222.83-338.07z" fill="#cead84"/></g><g><path d="m13.39 292.97-8.79 11.57c-.74-3.83-1.39-7.68-1.95-11.57z" fill="#cead84"/><g fill="#99764d"><path d="m309.14 472.87h-57.45l-5.59-3.41-16.33-9.97-41.15-25.11-24.25-14.8-12.54-7.65-19.54-11.92-22.64-13.82-.35-.21-3.86-2.36-7.02-4.29-26.1-15.93-31.44-19.18-6.32-3.86-25.14-15.34c-1.88-6.72-3.49-13.55-4.82-20.48l8.79-11.57 10.06 6.12 22.39 13.62 33.41 20.32 35.43 21.55 2.69 1.64 8.07 4.91.33.2 22.91 13.93 7.17 4.37 18.21 11.08h.01l26.26 15.97 27.2 16.55 2.73 1.66 48.84 29.71 6.82 4.15 10.34 6.29h.01l1.39.85z"/><path d="m251.69 472.87h-10.01l-7.03-4.34-14.91-9.2-36.92-22.78-31-19.13-11.65-7.19-10.4-6.42-22.54-13.91-.34-.2-10.88-6.72-2.29-1.41s-.01-.01-.02-.01l-10.58-6.53-19.8-12.22s-.01 0-.01-.01l-20.65-12.74-31.63-19.52c-.56-1.83-1.1-3.67-1.61-5.52l25.14 15.34 6.32 3.86 31.44 19.18 26.1 15.93 7.02 4.29 3.86 2.36.35.21 22.64 13.82 19.54 11.92 12.54 7.65 24.25 14.8 41.15 25.11 16.33 9.97z"/></g></g><path d="m504.67 195.01c-25.19 115.85-155.67 174.67-155.67 174.67-21.66 11.06-49.35 17.14-77.95 20.18-12.07 1.28-24.29 2.02-36.3 2.36-35.46 1-68.96-1.47-90.54-3.68-15.13-1.54-24.41-2.96-24.41-2.96-1.35-.09-2.68-.2-4-.34-65.34-6.24-87.11-53.2-87.11-53.2-31.8-29.7-8.94-32.95-8.94-32.95h193.25c142.33-109.9 86.46-201.81 86.46-201.81h157.41c.68.86 1.35 1.72 2.02 2.59.08.11.16.22.24.32 9.58 12.47 18.04 25.84 25.21 39.98h.01c3.7 7.28 7.06 14.75 10.06 22.41 4.12 10.49 7.55 21.31 10.26 32.43z" fill="#fff"/><g fill="#ff684f"><path d="m207.627 299.089h21.927c96.187-82.453 98.052-169.259 94.661-201.811h-24.752c4.181 10.059 3.503 20.74 1.13 29.896v.339c-5.709 83.98-92.966 171.576-92.966 171.576z"/><path d="m352.811 97.279c3.278 35.095 1.624 134.373-87.725 198.686l18.946 12.677s112.182-93.079 93.589-211.363z"/><path d="m305.896 320.789 15.872 9.654s128.869-100.131 109.427-233.165h-24.243c2.825 37.469-.914 149.873-101.056 223.511z"/><path d="m484.34 140.17-.5.41c-.36 7.05-1.21 13.65-2.46 19.79-.08.49-.18.98-.29 1.46l-.01.01c-9.87 46.29-41.01 66.83-41.01 66.83 1.78-3.92 3.4-7.88 4.88-11.86 16.93-45.22 15.95-92.86 13.94-116.94.08.11.16.22.24.32 9.58 12.47 18.04 25.84 25.21 39.98z"/><path d="m305.141 357.256-34.806 12.789 15.967 12.054 38.812-16.012z"/><path d="m271.05 389.86c-12.07 1.28-24.29 2.02-36.3 2.36-52.38-30.86-58.87-93.13-58.87-93.13h21.87c14.67 66.49 61.04 86.56 73.3 90.77z"/><path d="m44.471 299.094h-24.725s-2.661 18.589 8.879 36.031c0 0 24.606 38.123 56.829 43.598 0 0-40.983-37.479-40.983-79.629z"/><path d="m321.768 330.443s-37.948 28.713-63.959 30.698l-13.658-10.361s43.421-13.048 61.744-29.992c13.137-12.146 15.873 9.655 15.873 9.655z"/><path d="m284.031 308.642s-32.343 27.54-48.828 30.483c0 0-5.901-4.461-10.241-14.952l17.307-7.653 22.816-20.555z"/></g><path d="m494.53 162.91-201.4 309.96h-16.49l211.33-325.28c2.3 4.91 4.45 9.91 6.44 14.99.04.11.09.22.12.33z" fill="#cead84"/><path d="m260.166 292.972h-13.658l-16.012 20.722 11.774 2.825z" fill="#cead84"/><path d="m437.09 436.93c-1.19 1.19-2.39 2.38-3.61 3.54l-202.98-126.78 11.77 2.83z" fill="#846246"/><path d="m457.8 413.53c-.95 1.2-1.9 2.39-2.86 3.58-5.58 6.88-11.51 13.47-17.76 19.73l-194.91-120.32 17.9-23.54z" fill="#99764d"/><path d="m505.56 198.78-181.34 275.22-31.09-1.13 200.93-311.16c.12.29.24.58.35.87.04.11.09.22.12.33 4.07 10.39 7.46 21.1 10.14 32.1.13.48.24.97.36 1.46.18.77.36 1.54.53 2.31z" fill="#99764d"/><path d="m144.21 388.54c-15.13-1.54-24.41-2.96-24.41-2.96-1.35-.09-2.68-.2-4-.34-38.61-27.55-45.2-86.15-45.2-86.15h23.34c7.13 45.78 37.49 77.91 50.27 89.45z" fill="#ff684f"/><path d="m202.96 392.27c-45.61-27.21-58.16-93.18-58.16-93.18h-24.02c6.55 60.97 35.13 84.16 47.76 91.55z" fill="#ff684f"/><g fill="#ffb400"><circle cx="235.748" cy="491.037" r="4.033"/><circle cx="290.287" cy="488.332" r="4.033"/><circle cx="218.408" cy="479.78" r="3.1"/><circle cx="207.481" cy="493.891" r="2.646"/><circle cx="298.608" cy="501.2" r="2.646"/><circle cx="229.693" cy="507.135" r="2.017"/><circle cx="223.677" cy="496.507" r="1.329"/><circle cx="249.425" cy="506.165" r="1.329"/><circle cx="275.64" cy="496.537" r="2.017"/><circle cx="182" cy="492.366" r="2.017"/><circle cx="330.365" cy="493.054" r="2.017"/><circle cx="171.839" cy="488.332" r="1.329"/><circle cx="191.59" cy="482.88" r="1.329"/></g></g><path d="m512 256c0 141.38-114.62 256-256 256-100.81 0-188.01-58.27-229.75-142.97 46.92 58.1 118.75 95.26 199.25 95.26 141.39 0 256-114.61 256-256 0-40.57-9.44-78.94-26.24-113.03 35.48 43.94 56.74 99.86 56.74 160.74z" fill="#ffb400" opacity=".25"/></g></g></svg>