<?xml version="1.0" ?><svg enable-background="new 0 0 24 24" id="Layer_1" version="1.1" viewBox="0 0 24 24" xml:space="preserve" xmlns="http://www.w3.org/2000/svg" xmlns:xlink="http://www.w3.org/1999/xlink"><g><path d="   M17.5118523,9.0031204C19.8545036,9.985527,21.5,12.3006001,21.5,15c0,3.5898514-2.9101486,6.5-6.5,6.5S8.5,18.5898514,8.5,15   s2.9101496-6.5,6.5-6.5c0.1580763,0,0.3148346,0.0056429,0.4700842,0.0167379" fill="none" stroke="#28a745" stroke-linecap="round" stroke-linejoin="round" stroke-miterlimit="10"/><path d="   M17.2258816,6.7944183C20.8406925,7.7726302,23.5,11.075758,23.5,15c0,4.6944199-3.8055801,8.5-8.5,8.5S6.5,19.6944199,6.5,15   s3.8055792-8.5,8.5-8.5" fill="none" stroke="#28a745" stroke-linecap="round" stroke-linejoin="round" stroke-miterlimit="10"/><path d="   M6.5064154,15.004508C4.1540551,14.0264969,2.5,11.7064114,2.5,9c0-3.5898509,2.9101491-6.5,6.5-6.5s6.5,2.9101491,6.5,6.5   s-2.9101496,6.5-6.5,6.5c-0.1623192,0-0.3232479-0.00595-0.4825811-0.017643" fill="none" stroke="#28a745" stroke-linecap="round" stroke-linejoin="round" stroke-miterlimit="10"/><path d="   M6.7867913,17.2089996C3.1655238,16.2350864,0.5,12.9288263,0.5,9c0-4.6944203,3.8055797-8.5,8.5-8.5s8.5,3.8055797,8.5,8.5   s-3.8055792,8.5-8.5,8.5" fill="none" stroke="#28a745" stroke-linecap="round" stroke-linejoin="round" stroke-miterlimit="10"/></g><g/><g/><g/><g/><g/><g/><g/><g/><g/><g/><g/><g/><g/><g/><g/></svg>