<svg xmlns="http://www.w3.org/2000/svg" viewBox="0 0 600 600"><defs><style>.cls-1{fill:#28a745;stroke:#28a745;stroke-linecap:round;stroke-linejoin:round;}</style></defs><g id="MaleFemale"><g id="Female_Person" data-name="Female Person"><circle id="Head" class="cls-1" cx="421.58" cy="101.52" r="41.76"/><path id="Body" class="cls-1" d="M421,185c-28.81,0-48.85,14.41-52.19,31.32-38.42,201-41.76,219.21-41.76,219.21h62.64V540h62.63V435.56H515s-3.34-18.16-41.75-219.21C469.9,199.44,449.85,185,421,185Z"/></g><g id="Male_Person" data-name="Male Person"><circle id="Head-2" data-name="Head" class="cls-1" cx="182.42" cy="102.58" r="42.56"/><path id="Body-2" data-name="Body" class="cls-1" d="M180.78,177.58a158.41,158.41,0,0,0-86.62,25.75A21.29,21.29,0,0,0,85,221V370h42.56V540.23H234V370h42.56V221a21.29,21.29,0,0,0-9.15-17.67A158.41,158.41,0,0,0,180.78,177.58Z"/></g></g></svg>