<svg id="MaleMale" xmlns="http://www.w3.org/2000/svg" viewBox="0 0 600 600"><defs><style>.cls-1{fill:#28a745;stroke:#28a745;stroke-linecap:round;stroke-linejoin:round;}</style></defs><g id="Male_Person_R" data-name="Male Person R"><circle id="Head" class="cls-1" cx="425.65" cy="102.71" r="42.51"/><path id="Body" class="cls-1" d="M424,177.61a158.16,158.16,0,0,0-86.5,25.72A21.24,21.24,0,0,0,328.37,221V369.76h42.51v170H477.15v-170h42.51V221a21.24,21.24,0,0,0-9.14-17.64A158.16,158.16,0,0,0,424,177.61Z"/></g><g id="Male_Person_L" data-name="Male Person L"><circle id="Body-2" data-name="Body" class="cls-1" cx="177.62" cy="102.71" r="42.51"/><path id="Body-3" data-name="Body" class="cls-1" d="M176,177.61a158.16,158.16,0,0,0-86.51,25.72A21.24,21.24,0,0,0,80.34,221V369.76h42.51v170H229.12v-170h42.51V221a21.24,21.24,0,0,0-9.14-17.64A158.16,158.16,0,0,0,176,177.61Z"/></g></svg>