<svg xmlns="http://www.w3.org/2000/svg" viewBox="0 0 600 600"><defs><style>.cls-1{fill:#28a745;stroke:#28a745;stroke-linecap:round;stroke-linejoin:round;}</style></defs><g id="FemaleFemale"><g id="Female_Person_R" data-name="Female Person R"><circle id="Head" class="cls-1" cx="415.04" cy="98.32" r="42.46"/><path id="Body" class="cls-1" d="M414.5,183.24c-29.3,0-49.68,14.65-53.07,31.84C322.36,419.52,319,438,319,438h63.69V544.14h63.68V438H510s-3.39-18.47-42.46-222.91C464.18,197.89,443.8,183.24,414.5,183.24Z"/></g><g id="Female_Person_L" data-name="Female Person L"><circle id="Head-2" data-name="Head" class="cls-1" cx="186.04" cy="98.32" r="42.46"/><path id="Body-2" data-name="Body" class="cls-1" d="M185.5,183.24c-29.3,0-49.68,14.65-53.07,31.84C93.36,419.52,90,438,90,438h63.69V544.14h63.68V438H281s-3.39-18.47-42.46-222.91C235.18,197.89,214.8,183.24,185.5,183.24Z"/></g></g></svg>