<svg id="Capa_1" enable-background="new 0 0 512.001 512.001" height="512" viewBox="0 0 512.001 512.001" width="512" xmlns="http://www.w3.org/2000/svg"><g><path d="m389.174 500.737c-8.361 0-16.25-3.228-22.214-9.088l-110.959-109.045-110.958 109.044c-5.965 5.861-13.855 9.089-22.216 9.089-8.373 0-16.269-3.234-22.234-9.107l-83.632-82.32c-6.105-6.011-9.464-14.037-9.46-22.6.003-8.44 3.457-16.674 9.475-22.591l110.108-108.206-110.169-108.266c-5.985-5.884-9.415-14.065-9.415-22.45s3.43-16.566 9.412-22.446l83.863-82.415c5.95-5.849 13.84-9.072 22.215-9.072 8.373 0 16.262 3.222 22.215 9.072l110.797 108.884 110.795-108.883c5.954-5.85 13.843-9.072 22.216-9.072 8.372 0 16.261 3.222 22.214 9.072l83.86 82.411c5.984 5.88 9.415 14.063 9.415 22.449s-3.431 16.569-9.416 22.449l-110.168 108.267 110.105 108.203c6.021 5.918 9.475 14.153 9.478 22.594.004 8.44-3.444 16.678-9.459 22.599l-83.633 82.322c-5.965 5.872-13.861 9.106-22.232 9.106-.002 0-.002 0-.003 0z" fill="#f9c6da"/><path d="m351.555 253.207 125.788-123.616c2.459-2.417 2.459-6.371 0-8.788l-83.859-82.411c-2.459-2.417-6.483-2.417-8.943 0l-125.881 123.709c-1.476 1.45-3.842 1.45-5.318 0l-125.882-123.709c-2.459-2.417-6.483-2.417-8.942 0l-83.859 82.411c-2.459 2.417-2.459 6.371 0 8.788l125.787 123.616c1.513 1.487 1.513 3.925 0 5.411l-125.723 123.553c-2.543 2.499-2.544 6.597-.004 9.098l83.632 82.32c2.482 2.443 6.464 2.444 8.947.004l126.044-123.868c1.476-1.451 3.842-1.451 5.318 0l126.044 123.868c2.484 2.441 6.466 2.439 8.947-.004l83.632-82.321c2.541-2.501 2.539-6.598-.004-9.097l-125.724-123.553c-1.513-1.486-1.513-3.924 0-5.411z" fill="#da387d"/><path d="m477.279 382.172-125.724-123.554c-1.513-1.487-1.513-3.925 0-5.411l125.788-123.616c2.459-2.417 2.459-6.371 0-8.788l-83.859-82.411c-2.459-2.417-6.483-2.417-8.943 0l-5.353 5.261 31.602 31.056c17.063 16.769 17.063 44.208 0 60.977l-72.682 71.427c-16.102 15.824-16.102 41.776 0 57.6l72.639 71.385c17.124 16.828 17.135 44.423.025 61.265l-31.477 30.984c-7.843 7.72-17.912 11.82-28.118 12.298l33.527 32.948c2.483 2.441 6.465 2.439 8.947-.004l83.632-82.321c2.54-2.5 2.539-6.598-.004-9.096z" fill="#d80a61"/><path d="m11.658 152.996 104.726 102.917-104.665 102.857c-15.22 14.963-16.003 40.146-.019 55.885l83.631 82.318c15.243 15.007 39.689 15.038 54.969.023l105.701-103.876 105.702 103.878c15.258 14.993 39.707 15.001 54.966-.023l83.635-82.322c7.438-7.323 11.702-17.51 11.697-27.946-.004-10.438-4.275-20.622-11.722-27.94l-104.661-102.854 104.724-102.917c7.409-7.281 11.659-17.414 11.659-27.799s-4.249-20.518-11.658-27.798l-83.859-82.411c-15.233-14.971-39.702-14.977-54.943 0l-105.54 103.717-38.346-37.683c-2.952-2.903-7.701-2.864-10.606.092-2.903 2.954-2.861 7.703.093 10.606l43.603 42.85c2.918 2.868 7.596 2.869 10.514 0l110.795-108.884c9.396-9.233 24.516-9.236 33.916 0l83.859 82.411c9.544 9.379 9.553 24.812-.001 34.201l-110.167 108.266c-1.435 1.41-2.243 3.337-2.243 5.349s.809 3.939 2.243 5.349l110.104 108.203c9.622 9.46 9.639 25.024.016 34.499l-83.635 82.322c-9.41 9.263-24.499 9.279-33.93.014l-110.958-109.045c-2.918-2.868-7.596-2.868-10.514 0l-110.958 109.044c-9.416 9.254-24.507 9.264-33.933-.015l-83.63-82.317c-9.849-9.697-9.405-25.242.01-34.499l110.107-108.206c1.435-1.41 2.243-3.337 2.243-5.349s-.809-3.939-2.243-5.349l-110.167-108.265c-9.54-9.38-9.559-24.805-.004-34.198l83.863-82.415c9.393-9.233 24.516-9.235 33.915 0l41.752 41.032c2.951 2.903 7.7 2.863 10.606-.092 2.903-2.954 2.861-7.703-.093-10.606l-41.752-41.032c-15.233-14.97-39.709-14.977-54.943 0l-83.863 82.415c-7.406 7.28-11.654 17.411-11.654 27.794 0 10.382 4.249 20.514 11.658 27.799z"/><path d="m342.92 255.913c0 3.053 1.199 5.914 3.378 8.055l64.883 63.762c2.952 2.902 7.7 2.863 10.606-.092 2.903-2.954 2.861-7.703-.093-10.606l-62.192-61.119 123.099-120.973c5.453-5.361 5.453-14.124-.001-19.486l-83.858-82.411c-5.364-5.273-14.093-5.273-19.457 0l-123.284 121.155-123.284-121.155c-5.363-5.271-14.092-5.271-19.455 0l-83.86 82.412c-5.453 5.361-5.453 14.124.001 19.486l123.097 120.971-123.033 120.91c-5.537 5.441-5.541 14.347-.008 19.792l83.631 82.32c5.36 5.277 14.093 5.288 19.465.008l123.446-121.314 123.446 121.315c5.368 5.276 14.101 5.272 19.465-.008l83.631-82.32c5.531-5.445 5.53-14.349-.007-19.792l-35.247-34.638c-2.953-2.903-7.701-2.864-10.606.092-2.903 2.954-2.861 7.703.093 10.606l34.435 33.839-82.035 80.75-125.26-123.098c-4.364-4.287-11.466-4.286-15.83.002l-125.259 123.094-82.035-80.748 124.912-122.755c2.178-2.14 3.377-5.001 3.377-8.054 0-3.054-1.199-5.915-3.378-8.055l-124.815-122.661 82.102-80.683 125.096 122.936c4.361 4.287 11.464 4.288 15.831-.001l125.096-122.936 82.102 80.684-124.818 122.661c-2.178 2.14-3.377 5.001-3.377 8.055z"/></g></svg>